<svg width="916" height="911" viewBox="0 0 916 911" fill="none" xmlns="http://www.w3.org/2000/svg">
<g clip-path="url(#clip0_27_2)">
<path d="M170.359 684.601C170.359 684.601 66.8114 689.949 90.9299 722.512C115.048 755.075 178.423 703.41 178.423 703.41L170.359 684.601Z" fill="#FFB8B8"/>
<path d="M361.181 374.44L340.104 379.704C340.104 379.704 327.81 416.55 319.028 449.888C310.246 483.225 292.682 583.236 292.682 583.236L156.514 678.568L172.755 714.862L354.155 643.442L394.552 484.979L361.181 374.44Z" fill="#828282"/>
<path opacity="0.2" d="M341.35 439.843L349.206 604.178L332.814 653.036L380.831 617.86L341.35 439.843Z" fill="black"/>
<path d="M312.88 731.499C312.88 731.499 290.047 792.91 286.534 835.02C283.022 877.13 279.509 910.467 279.509 910.467H386.649L407.725 878.884V910.467H532.429C532.429 910.467 567.557 796.419 553.506 782.382C539.454 768.345 405.969 708.689 405.969 708.689L312.88 731.499Z" fill="#2F2E41"/>
<path d="M108.731 908.868H728.693V911H108.731V908.868Z" fill="#3F3D56"/>
<path d="M447.244 307.766C410.383 307.766 380.501 277.915 380.501 241.092C380.501 204.268 410.383 174.417 447.244 174.417C484.105 174.417 513.987 204.268 513.987 241.092C513.987 277.915 484.105 307.766 447.244 307.766Z" fill="#FFB8B8"/>
<path d="M498.179 269.165L503.448 346.367L436.706 435.851L403.334 351.631C403.334 351.631 433.193 332.33 415.629 291.975L498.179 269.165Z" fill="#FFB8B8"/>
<path d="M303.224 746.411C303.224 762.209 347.134 786.769 347.134 786.769V795.542L364.698 804.315L403.336 727.117L413.868 811.329C413.868 811.329 491.155 823.619 515.74 811.329C540.336 799.049 552.628 804.315 587.756 792.035C622.884 779.755 573.703 614.818 573.703 614.818L608.83 360.404L532.087 322.071L528.043 320.046L517.49 318.106L501.313 315.121L447.245 351.631L442.892 374.442L440.213 388.481L426.171 372.683L415.564 337.837L340.102 379.708L361.176 548.142C361.176 548.142 303.224 730.624 303.224 746.411Z" fill="#828282"/>
<path d="M561.409 800.805C561.409 800.805 480.615 865.725 519.256 878.007C557.897 890.289 578.973 811.333 578.973 811.333L561.409 800.805Z" fill="#FFB8B8"/>
<path d="M591.268 363.913L608.832 360.404C608.832 360.404 635.178 374.44 636.934 402.514C638.691 430.587 661.524 627.101 661.524 627.101L587.755 825.369L528.038 802.56L585.999 616.573L542.089 455.151L591.268 363.913Z" fill="#828282"/>
<path d="M439.52 417.458C435.984 417.458 433.117 414.594 433.117 411.062C433.117 407.529 435.984 404.666 439.52 404.666C443.056 404.666 445.922 407.529 445.922 411.062C445.922 414.594 443.056 417.458 439.52 417.458Z" fill="#2F2E41"/>
<path d="M439.52 459.03C435.984 459.03 433.117 456.167 433.117 452.634C433.117 449.102 435.984 446.239 439.52 446.239C443.056 446.239 445.922 449.102 445.922 452.634C445.922 456.167 443.056 459.03 439.52 459.03Z" fill="#2F2E41"/>
<path d="M403.24 732.984C399.704 732.984 396.837 730.12 396.837 726.588C396.837 723.056 399.704 720.192 403.24 720.192C406.776 720.192 409.642 723.056 409.642 726.588C409.642 730.12 406.776 732.984 403.24 732.984Z" fill="#2F2E41"/>
<path d="M503.594 172.787L515.932 167.852C515.932 167.852 490.135 139.48 454.243 141.948L464.338 130.845C464.338 130.845 439.662 120.977 417.23 146.882C405.438 160.499 391.794 176.506 383.288 194.538H370.076L375.59 206.668L356.289 218.798L376.1 216.619C374.919 223.261 374.738 230.043 375.562 236.739C376.412 243.437 379.834 249.543 385.105 253.769C385.105 253.769 400.406 222.129 400.406 217.195V229.531C400.406 229.531 412.744 218.429 412.744 211.027L419.473 219.662H464.338L457.608 208.56L483.405 212.261L473.31 198.692L513.252 254.724C513.252 254.724 536.121 191.29 503.594 172.787Z" fill="#2F2E41"/>
<path d="M106.706 644.443C47.7739 644.443 0 596.718 0 537.846C0 478.974 47.7739 431.25 106.706 431.25C165.638 431.25 213.412 478.974 213.412 537.846C213.412 596.718 165.638 644.443 106.706 644.443Z" fill="#3F3D56"/>
<path opacity="0.1" d="M106.706 629.519C56.0244 629.519 14.9388 588.476 14.9388 537.846C14.9388 487.217 56.0244 446.173 106.706 446.173C157.388 446.173 198.473 487.217 198.473 537.846C198.473 588.476 157.388 629.519 106.706 629.519Z" fill="black"/>
<path d="M111.103 591.942V578.599C117.855 578.467 124.84 576.089 128.914 572.786L126.12 563.935C121.279 567.56 115.407 569.549 109.357 569.615C101.092 569.615 95.5045 564.199 95.5045 556.669C95.5045 549.403 100.045 544.912 108.659 540.948C120.533 535.664 127.866 529.587 127.866 518.094C127.866 507.129 120.998 498.806 110.288 496.825V483.482H103.071V496.296C97.6894 496.37 92.44 497.974 87.9377 500.92L90.8484 509.639C95.1663 506.686 100.283 505.119 105.516 505.147C114.479 505.147 117.855 511.224 117.855 516.509C117.855 523.378 113.548 526.813 103.42 531.569C91.4303 537.117 85.3767 543.987 85.3767 555.744C85.3767 566.18 91.7794 575.957 103.77 578.202V591.942H111.103Z" fill="#FC7C7B"/>
<path opacity="0.2" d="M570.229 667.174L527.552 800.349L561.698 661.773L570.229 667.174Z" fill="black"/>
<path d="M787.816 407.008H814.905C816.085 407.006 817.217 406.537 818.052 405.703C818.887 404.869 819.357 403.738 819.358 402.559V363.658C819.357 362.479 818.887 361.348 818.052 360.514C817.217 359.68 816.085 359.211 814.905 359.21H787.816C786.635 359.211 785.503 359.68 784.668 360.514C783.833 361.348 783.364 362.479 783.362 363.658V402.559C783.364 403.738 783.833 404.869 784.668 405.703C785.503 406.537 786.635 407.006 787.816 407.008ZM814.905 361.342C815.52 361.342 816.109 361.587 816.544 362.021C816.979 362.455 817.223 363.044 817.224 363.658V402.559C817.223 403.173 816.979 403.762 816.544 404.196C816.109 404.631 815.52 404.875 814.905 404.876H787.816C787.201 404.875 786.611 404.631 786.177 404.196C785.742 403.762 785.497 403.173 785.497 402.559V363.658C785.497 363.044 785.742 362.455 786.177 362.021C786.611 361.587 787.201 361.342 787.816 361.342H814.905Z" fill="#3F3D56"/>
<path d="M738.336 407.008H762.8C764.328 407.006 765.794 406.398 766.875 405.318C767.956 404.239 768.564 402.774 768.566 401.247V322.686C768.564 321.159 767.956 319.695 766.875 318.615C765.794 317.535 764.328 316.928 762.8 316.926H738.336C736.808 316.928 735.342 317.535 734.261 318.615C733.18 319.695 732.572 321.159 732.57 322.686V401.247C732.572 402.774 733.18 404.239 734.261 405.318C735.342 406.398 736.808 407.006 738.336 407.008ZM762.8 319.058C763.763 319.059 764.686 319.442 765.367 320.122C766.048 320.802 766.431 321.724 766.432 322.686V401.247C766.431 402.209 766.048 403.132 765.367 403.812C764.686 404.492 763.763 404.875 762.8 404.876H738.336C737.374 404.875 736.45 404.492 735.769 403.812C735.088 403.132 734.705 402.209 734.704 401.247V322.686C734.705 321.724 735.088 320.802 735.769 320.122C736.45 319.442 737.374 319.059 738.336 319.058L762.8 319.058Z" fill="#3F3D56"/>
<path d="M688.489 407.008H711.063C712.842 407.006 714.548 406.299 715.806 405.042C717.064 403.785 717.772 402.081 717.774 400.304V284.73C717.772 282.952 717.064 281.248 715.806 279.991C714.548 278.735 712.842 278.028 711.063 278.026H688.489C686.71 278.028 685.004 278.735 683.746 279.991C682.488 281.248 681.78 282.952 681.778 284.73V400.304C681.78 402.081 682.488 403.785 683.746 405.042C685.004 406.299 686.71 407.006 688.489 407.008ZM711.063 280.158C712.276 280.159 713.44 280.641 714.298 281.498C715.156 282.355 715.638 283.517 715.64 284.73V400.304C715.638 401.516 715.156 402.678 714.298 403.535C713.44 404.392 712.276 404.874 711.063 404.876H688.489C687.276 404.874 686.112 404.392 685.254 403.535C684.396 402.678 683.914 401.516 683.912 400.304V284.73C683.914 283.517 684.396 282.355 685.254 281.498C686.112 280.641 687.276 280.159 688.489 280.158H711.063Z" fill="#3F3D56"/>
<path d="M791.202 366.618H811.519V399.599H791.202V366.618Z" fill="#FC7C7B"/>
<path d="M740.41 324.758H760.726V399.599H740.41V324.758Z" fill="#FC7C7B"/>
<path d="M689.618 285.857H709.934V399.599H689.618V285.857Z" fill="#FC7C7B"/>
<path d="M65.5151 284.421H207.434C207.574 284.421 207.713 284.394 207.843 284.34C207.972 284.287 208.09 284.208 208.189 284.109C208.288 284.01 208.366 283.893 208.42 283.763C208.474 283.634 208.501 283.495 208.501 283.355V139.45C208.501 139.167 208.389 138.896 208.189 138.696C207.989 138.496 207.717 138.384 207.434 138.384C207.151 138.384 206.88 138.496 206.68 138.696C206.479 138.896 206.367 139.167 206.367 139.45V282.289H65.5151C65.2321 282.289 64.9607 282.402 64.7605 282.602C64.5604 282.802 64.448 283.073 64.448 283.355C64.448 283.638 64.5604 283.909 64.7605 284.109C64.9607 284.309 65.2321 284.421 65.5151 284.421Z" fill="#3F3D56"/>
<path d="M667.337 421.931H835.933C836.073 421.931 836.212 421.904 836.341 421.85C836.471 421.796 836.588 421.718 836.688 421.619C836.787 421.52 836.865 421.402 836.919 421.273C836.972 421.144 837 421.005 837 420.865V253.508C837 253.226 836.888 252.955 836.687 252.755C836.487 252.555 836.216 252.442 835.933 252.442C835.65 252.442 835.379 252.555 835.178 252.755C834.978 252.955 834.866 253.226 834.866 253.508V419.799H667.337C667.054 419.799 666.783 419.911 666.583 420.111C666.383 420.311 666.27 420.582 666.27 420.865C666.27 421.148 666.383 421.419 666.583 421.619C666.783 421.819 667.054 421.931 667.337 421.931Z" fill="#3F3D56"/>
<path d="M158.458 271.062H185.547C186.728 271.061 187.86 270.592 188.695 269.758C189.53 268.924 189.999 267.793 190.001 266.613V227.713C189.999 226.533 189.53 225.402 188.695 224.568C187.86 223.734 186.728 223.265 185.547 223.264H158.458C157.277 223.266 156.145 223.735 155.311 224.569C154.476 225.403 154.006 226.533 154.005 227.713V266.613C154.006 267.793 154.476 268.923 155.311 269.757C156.145 270.591 157.277 271.061 158.458 271.062ZM185.547 225.396C186.162 225.397 186.751 225.641 187.186 226.075C187.621 226.51 187.866 227.099 187.866 227.713V266.613C187.866 267.228 187.621 267.816 187.186 268.251C186.751 268.685 186.162 268.929 185.547 268.93H158.458C157.843 268.929 157.254 268.685 156.819 268.251C156.384 267.816 156.14 267.228 156.139 266.613V227.713C156.14 227.099 156.384 226.51 156.819 226.076C157.254 225.641 157.843 225.397 158.458 225.396H185.547Z" fill="#3F3D56"/>
<path d="M102.982 271.062H127.915C129.382 271.06 130.788 270.477 131.825 269.442C132.862 268.406 133.445 267.001 133.446 265.536V195.076C133.445 193.611 132.861 192.206 131.825 191.171C130.788 190.135 129.382 189.552 127.915 189.55H102.982C101.516 189.552 100.11 190.135 99.0727 191.171C98.0358 192.206 97.4525 193.611 97.4509 195.076V265.536C97.4525 267.001 98.0358 268.406 99.0727 269.442C100.11 270.477 101.516 271.06 102.982 271.062ZM127.915 191.682C128.816 191.683 129.679 192.041 130.316 192.677C130.953 193.314 131.311 194.176 131.312 195.076V265.536C131.311 266.436 130.953 267.298 130.316 267.935C129.679 268.571 128.816 268.929 127.915 268.93H102.982C102.081 268.929 101.218 268.571 100.581 267.935C99.9441 267.298 99.5859 266.436 99.585 265.536V195.076C99.586 194.176 99.9442 193.314 100.581 192.677C101.218 192.041 102.081 191.683 102.982 191.682H127.915Z" fill="#3F3D56"/>
<path d="M162.331 231.042H182.648V264.023H162.331V231.042Z" fill="#FC7C7B"/>
<path d="M105.29 198.4H125.607V262.213H105.29V198.4Z" fill="#FC7C7B"/>
<path d="M172.221 211.936C166.917 211.936 162.617 207.64 162.617 202.342C162.617 197.044 166.917 192.748 172.221 192.748C177.525 192.748 181.825 197.044 181.825 202.342C181.825 207.64 177.525 211.936 172.221 211.936Z" fill="#FC7C7B"/>
<path d="M115.667 175.693C110.363 175.693 106.063 171.398 106.063 166.099C106.063 160.801 110.363 156.505 115.667 156.505C120.971 156.505 125.271 160.801 125.271 166.099C125.271 171.398 120.971 175.693 115.667 175.693Z" fill="#FC7C7B"/>
</g>
<path d="M694 190C668.595 190 648 169.405 648 144C648 118.595 668.595 98 694 98C719.405 98 740 118.595 740 144C740 169.405 719.405 190 694 190Z" fill="#3F3D56"/>
<path opacity="0.1" d="M694 184C671.909 184 654 166.091 654 144C654 121.909 671.909 104 694 104C716.091 104 734 121.909 734 144C734 166.091 716.091 184 694 184Z" fill="black"/>
<path d="M696.227 167V161.341C699.174 161.285 702.222 160.276 704 158.876L702.781 155.122C700.668 156.659 698.106 157.503 695.465 157.531C691.858 157.531 689.42 155.234 689.42 152.04C689.42 148.958 691.401 147.054 695.161 145.373C700.342 143.132 703.543 140.554 703.543 135.68C703.543 131.029 700.546 127.499 695.872 126.659V121H692.722V126.435C690.373 126.466 688.082 127.146 686.118 128.396L687.388 132.094C689.272 130.842 691.505 130.177 693.789 130.189C697.7 130.189 699.174 132.766 699.174 135.007C699.174 137.921 697.294 139.377 692.874 141.395C687.642 143.748 685 146.661 685 151.648C685 156.074 687.794 160.221 693.027 161.173V167H696.227Z" fill="#FC7C7B"/>
<path d="M858.5 825C826.744 825 801 799.256 801 767.5C801 735.744 826.744 710 858.5 710C890.256 710 916 735.744 916 767.5C916 799.256 890.256 825 858.5 825Z" fill="#3F3D56"/>
<path opacity="0.1" d="M859 818C831.386 818 809 795.614 809 768C809 740.386 831.386 718 859 718C886.614 718 909 740.386 909 768C909 795.614 886.614 818 859 818Z" fill="black"/>
<path d="M861.182 796V788.988C864.904 788.919 868.754 787.669 871 785.933L869.46 781.281C866.791 783.186 863.554 784.232 860.219 784.267C855.663 784.267 852.583 781.42 852.583 777.463C852.583 773.644 855.086 771.284 859.834 769.201C866.38 766.424 870.423 763.23 870.423 757.19C870.423 751.427 866.636 747.054 860.733 746.012V739H856.754V745.735C853.787 745.773 850.894 746.616 848.412 748.164L850.016 752.747C852.397 751.195 855.217 750.371 858.102 750.386C863.043 750.386 864.904 753.58 864.904 756.357C864.904 759.967 862.529 761.772 856.946 764.272C850.337 767.188 847 770.798 847 776.977C847 782.461 850.53 787.599 857.139 788.779V796H861.182Z" fill="#FC7C7B"/>
<path d="M247 98C219.938 98 198 76.062 198 49C198 21.938 219.938 0 247 0C274.062 0 296 21.938 296 49C296 76.062 274.062 98 247 98Z" fill="#3F3D56"/>
<path opacity="0.1" d="M247.5 92C224.028 92 205 72.9721 205 49.5C205 26.0279 224.028 7 247.5 7C270.972 7 290 26.0279 290 49.5C290 72.9721 270.972 92 247.5 92Z" fill="black"/>
<path d="M249.409 73V67.095C252.666 67.0368 256.035 65.984 258 64.5225L256.653 60.6054C254.317 62.2095 251.485 63.09 248.567 63.1192C244.58 63.1192 241.885 60.7222 241.885 57.3898C241.885 54.1741 244.075 52.1864 248.23 50.4323C253.957 48.0938 257.495 45.4042 257.495 40.3179C257.495 35.4652 254.182 31.7819 249.016 30.905V25H245.535V30.6712C242.939 30.7037 240.407 31.4134 238.235 32.7173L239.639 36.5762C241.722 35.2694 244.19 34.5759 246.714 34.5882C251.037 34.5882 252.666 37.2775 252.666 39.6163C252.666 42.6564 250.588 44.1765 245.703 46.2814C239.92 48.7369 237 51.7771 237 56.9804C237 61.5991 240.088 65.9258 245.872 66.9192V73H249.409Z" fill="#FC7C7B"/>
<defs>
<clipPath id="clip0_27_2">
<rect width="837" height="782" fill="white" transform="matrix(-1 0 0 1 837 129)"/>
</clipPath>
</defs>
</svg>
