<svg width="193" height="58" viewBox="0 0 193 58" fill="none" xmlns="http://www.w3.org/2000/svg">
<g clip-path="url(#clip0_27_3)" filter="url(#filter0_d_27_3)">
<path d="M5.18868 16.5121L6.01097 18.6065L4.9219 19.0341C4.65528 19.1388 4.44117 19.3451 4.32666 19.6076C4.21215 19.8702 4.20663 20.1674 4.31131 20.4341C4.35412 20.5771 4.42614 20.7098 4.52282 20.8236C4.6195 20.9375 4.73873 21.03 4.873 21.0954C5.00727 21.1608 5.15364 21.1977 5.30287 21.2036C5.4521 21.2096 5.60095 21.1846 5.74 21.1301L6.83326 20.7008L7.65555 22.7952L6.56648 23.2228C6.43447 23.2746 6.31395 23.3519 6.21182 23.4504C6.10969 23.5488 6.02794 23.6663 5.97124 23.7963C5.91454 23.9263 5.884 24.0662 5.88137 24.208C5.87874 24.3498 5.90406 24.4908 5.95589 24.6228C5.9987 24.7659 6.07072 24.8985 6.1674 25.0123C6.26408 25.1262 6.38332 25.2187 6.51758 25.2841C6.65185 25.3495 6.79822 25.3864 6.94745 25.3924C7.09668 25.3983 7.24553 25.3733 7.38459 25.3188L8.47784 24.8896L9.30013 26.9839L8.21107 27.4115C7.94445 27.5162 7.73033 27.7225 7.61582 27.985C7.50132 28.2476 7.4958 28.5449 7.60048 28.8115C7.64328 28.9546 7.7153 29.0872 7.81198 29.2011C7.90866 29.3149 8.0279 29.4074 8.16217 29.4729C8.29643 29.5383 8.44281 29.5751 8.59204 29.5811C8.74127 29.587 8.89011 29.562 9.02917 29.5075L10.1224 29.0783L10.9447 31.1726L9.85565 31.6002C9.58903 31.7049 9.37492 31.9112 9.26041 32.1738C9.1459 32.4363 9.14038 32.7336 9.24506 33.0002C9.28787 33.1433 9.35989 33.2759 9.45657 33.3898C9.55325 33.5036 9.67249 33.5962 9.80675 33.6616C9.94102 33.727 10.0874 33.7638 10.2366 33.7698C10.3859 33.7758 10.5347 33.7507 10.6738 33.6962L11.767 33.267L12.5893 35.3613L11.5002 35.7889C11.2336 35.8936 11.0195 36.0999 10.905 36.3625C10.7905 36.625 10.785 36.9223 10.8896 37.1889C10.9943 37.4555 11.2006 37.6697 11.4632 37.7842C11.7257 37.8987 12.023 37.9042 12.2896 37.7995L13.3787 37.3719L14.201 39.4663L13.1119 39.8939C12.8453 39.9986 12.6312 40.2049 12.5167 40.4674C12.4022 40.73 12.3967 41.0272 12.5013 41.2939C12.606 41.5605 12.8123 41.7746 13.0749 41.8891C13.3374 42.0036 13.6347 42.0091 13.9013 41.9045L14.9904 41.4769L15.8127 43.5712L14.7236 43.9988C14.457 44.1035 14.2429 44.3098 14.1284 44.5724C14.0139 44.8349 14.0083 45.1322 14.113 45.3988C14.2177 45.6654 14.424 45.8795 14.6866 45.9941C14.9491 46.1086 15.2464 46.1141 15.513 46.0094L16.6021 45.5818L18.2467 49.7705L43.379 39.903L30.321 6.64462L5.18868 16.5121ZM19.8423 44.5997C19.5646 44.7087 19.2549 44.703 18.9814 44.5837C18.7079 44.4644 18.493 44.2414 18.384 43.9637C18.2749 43.6859 18.2807 43.3763 18.4 43.1028C18.5192 42.8293 18.7423 42.6144 19.02 42.5053C19.2977 42.3963 19.6074 42.402 19.8809 42.5213C20.1544 42.6406 20.3693 42.8636 20.4783 43.1414C20.5874 43.4191 20.5816 43.7288 20.4623 44.0023C20.3431 44.2757 20.12 44.4907 19.8423 44.5997ZM18.1977 40.411C17.92 40.52 17.6103 40.5143 17.3368 40.395C17.0633 40.2757 16.8484 40.0527 16.7394 39.7749C16.6303 39.4972 16.6361 39.1875 16.7554 38.9141C16.8747 38.6406 17.0977 38.4257 17.3754 38.3166C17.6532 38.2076 17.9628 38.2133 18.2363 38.3326C18.5098 38.4519 18.7247 38.6749 18.8337 38.9527C18.9428 39.2304 18.937 39.5401 18.8178 39.8135C18.6985 40.087 18.4754 40.3019 18.1977 40.411ZM16.5531 36.2223C16.2754 36.3313 15.9657 36.3256 15.6922 36.2063C15.4188 36.087 15.2038 35.864 15.0948 35.5862C14.9858 35.3085 14.9915 34.9988 15.1108 34.7253C15.2301 34.4519 15.4531 34.2369 15.7308 34.1279C16.0086 34.0189 16.3182 34.0246 16.5917 34.1439C16.8652 34.2632 17.0801 34.4862 17.1892 34.7639C17.2982 35.0417 17.2925 35.3513 17.1732 35.6248C17.0539 35.8983 16.8309 36.1132 16.5531 36.2223ZM14.9085 32.0335C14.6308 32.1426 14.3211 32.1368 14.0477 32.0176C13.7742 31.8983 13.5593 31.6752 13.4502 31.3975C13.3412 31.1198 13.3469 30.8101 13.4662 30.5366C13.5855 30.2631 13.8085 30.0482 14.0863 29.9392C14.364 29.8301 14.6737 29.8359 14.9471 29.9552C15.2206 30.0745 15.4355 30.2975 15.5446 30.5752C15.6536 30.853 15.6479 31.1626 15.5286 31.4361C15.4093 31.7096 15.1863 31.9245 14.9085 32.0335ZM13.264 27.8448C12.9862 27.9539 12.6766 27.9481 12.4031 27.8288C12.1296 27.7096 11.9147 27.4865 11.8056 27.2088C11.6966 26.9311 11.7023 26.6214 11.8216 26.3479C11.9409 26.0744 12.1639 25.8595 12.4417 25.7505C12.7194 25.6414 13.0291 25.6472 13.3026 25.7665C13.576 25.8857 13.791 26.1088 13.9 26.3865C14.009 26.6642 14.0033 26.9739 13.884 27.2474C13.7647 27.5209 13.5417 27.7358 13.264 27.8448ZM11.6194 23.6561C11.3417 23.7652 11.032 23.7594 10.7585 23.6401C10.485 23.5208 10.2701 23.2978 10.1611 23.0201C10.052 22.7424 10.0578 22.4327 10.177 22.1592C10.2963 21.8857 10.5194 21.6708 10.7971 21.5618C11.0748 21.4527 11.3845 21.4585 11.658 21.5777C11.9315 21.697 12.1464 21.9201 12.2554 22.1978C12.3645 22.4755 12.3587 22.7852 12.2394 23.0587C12.1201 23.3322 11.8971 23.5471 11.6194 23.6561ZM9.9748 19.4674C9.69707 19.5764 9.3874 19.5707 9.11391 19.4514C8.84042 19.3321 8.62551 19.1091 8.51647 18.8314C8.40743 18.5536 8.41318 18.244 8.53246 17.9705C8.65174 17.697 8.87477 17.4821 9.1525 17.373C9.43023 17.264 9.7399 17.2697 10.0134 17.389C10.2869 17.5083 10.5018 17.7313 10.6108 18.0091C10.7199 18.2868 10.7141 18.5965 10.5948 18.87C10.4756 19.1435 10.2525 19.3584 9.9748 19.4674ZM31.066 20.8554L18.4999 25.7891L16.033 19.506L28.5991 14.5723L31.066 20.8554Z" fill="#FC7C7B"/>
<rect x="14.6454" y="18.7079" width="15" height="9" transform="rotate(-21.4361 14.6454 18.7079)" fill="#FC7C7B"/>
<path d="M20.3162 26.8694C19.8879 25.7786 19.7035 24.6676 19.7629 23.5364C19.8208 22.4226 20.1121 21.4437 20.6369 20.5998C21.1572 19.766 21.861 19.175 22.7482 18.8266C23.5918 18.4954 24.4851 18.43 25.4283 18.6305C26.0908 18.7145 26.7764 19.0286 27.4853 19.5728C27.9906 19.9619 28.3785 20.4475 28.649 21.0295C29.1471 22.3195 28.9829 23.601 28.1566 24.8738C27.4562 25.9546 26.4406 26.7562 25.1099 27.2787C25.0953 27.2844 24.5639 27.4594 23.5157 27.8038C23.9916 28.4815 24.4736 28.9931 24.9618 29.3385C25.7865 29.9212 26.617 30.0484 27.4532 29.72L27.4751 29.7115C28.3695 29.3603 28.9781 28.6765 29.3009 27.6601C29.4326 27.2475 29.4932 26.7285 29.4827 26.1031L30.8937 25.9772C30.9103 26.105 30.9162 26.195 30.9115 26.2472C30.7404 27.6069 30.4491 28.5858 30.0376 29.1838C29.3456 30.0933 28.5887 30.7094 27.767 31.0321L27.7342 31.0449C26.738 31.4361 25.7669 31.5068 24.8212 31.257C23.8754 31.0073 22.9959 30.4881 22.1827 29.6995C21.3695 28.9109 20.7473 27.9675 20.3162 26.8694ZM26.594 21.8238C26.2713 21.002 25.7991 20.4405 25.1771 20.1391C24.6362 19.8731 24.0199 19.8423 23.328 20.0468L23.3062 20.0554C22.5062 20.3694 22.0191 21.0097 21.8446 21.9763C21.7151 22.7154 21.7809 23.5456 22.042 24.4671C22.1938 25.0034 22.3882 25.5733 22.6252 26.1769C22.7051 26.3805 22.8125 26.6112 22.9472 26.8688C23.6147 26.6235 24.2793 26.371 24.941 26.1112C25.2828 25.977 25.5193 25.8631 25.6505 25.7697C26.3136 25.2995 26.7027 24.7942 26.8178 24.2538C26.9627 23.3828 26.888 22.5728 26.594 21.8238Z" fill="white"/>
</g>
<path d="M76.272 31.176C76.68 31.176 77.004 31.332 77.244 31.644C77.508 31.956 77.64 32.376 77.64 32.904C77.64 33.648 77.196 34.272 76.308 34.776C75.492 35.232 74.568 35.604 73.536 35.892C72.504 36.156 71.52 36.288 70.584 36.288C67.752 36.288 65.508 35.472 63.852 33.84C62.196 32.208 61.368 29.976 61.368 27.144C61.368 25.344 61.728 23.748 62.448 22.356C63.168 20.964 64.176 19.884 65.472 19.116C66.792 18.348 68.28 17.964 69.936 17.964C71.52 17.964 72.9 18.312 74.076 19.008C75.252 19.704 76.164 20.688 76.812 21.96C77.46 23.232 77.784 24.732 77.784 26.46C77.784 27.492 77.328 28.008 76.416 28.008H65.796C65.94 29.664 66.408 30.888 67.2 31.68C67.992 32.448 69.144 32.832 70.656 32.832C71.424 32.832 72.096 32.736 72.672 32.544C73.272 32.352 73.944 32.088 74.688 31.752C75.408 31.368 75.936 31.176 76.272 31.176ZM70.044 21.132C68.82 21.132 67.836 21.516 67.092 22.284C66.372 23.052 65.94 24.156 65.796 25.596H73.932C73.884 24.132 73.524 23.028 72.852 22.284C72.18 21.516 71.244 21.132 70.044 21.132ZM83.686 28.152C82.99 28.152 82.462 27.996 82.102 27.684C81.766 27.372 81.598 26.94 81.598 26.388C81.598 25.836 81.766 25.404 82.102 25.092C82.462 24.756 82.99 24.588 83.686 24.588H91.102C91.798 24.588 92.314 24.756 92.65 25.092C93.01 25.404 93.19 25.836 93.19 26.388C93.19 26.94 93.01 27.372 92.65 27.684C92.314 27.996 91.798 28.152 91.102 28.152H83.686ZM117.619 32.508C118.099 32.964 118.339 33.48 118.339 34.056C118.339 34.608 118.123 35.1 117.691 35.532C117.283 35.94 116.791 36.144 116.215 36.144C115.615 36.144 115.063 35.892 114.559 35.388L102.571 24.156V33.876C102.571 34.572 102.355 35.136 101.923 35.568C101.515 36 100.951 36.216 100.231 36.216C99.5354 36.216 98.9714 36 98.5394 35.568C98.1314 35.136 97.9274 34.572 97.9274 33.876V12.744C97.9274 12.048 98.1314 11.496 98.5394 11.088C98.9714 10.656 99.5354 10.44 100.231 10.44C100.951 10.44 101.515 10.656 101.923 11.088C102.355 11.496 102.571 12.048 102.571 12.744V21.996L114.163 11.124C114.595 10.692 115.087 10.476 115.639 10.476C116.191 10.476 116.671 10.692 117.079 11.124C117.511 11.532 117.727 12.012 117.727 12.564C117.727 13.116 117.487 13.62 117.007 14.076L107.323 22.932L117.619 32.508ZM131.593 17.964C135.721 17.964 137.785 20.376 137.785 25.2V34.056C137.785 34.728 137.581 35.256 137.173 35.64C136.789 36.024 136.249 36.216 135.553 36.216C134.857 36.216 134.305 36.024 133.897 35.64C133.489 35.256 133.285 34.728 133.285 34.056V25.2C133.285 23.928 133.021 23.004 132.493 22.428C131.989 21.828 131.185 21.528 130.081 21.528C128.785 21.528 127.741 21.936 126.949 22.752C126.181 23.568 125.797 24.66 125.797 26.028V34.056C125.797 34.728 125.593 35.256 125.185 35.64C124.777 36.024 124.225 36.216 123.529 36.216C122.833 36.216 122.281 36.024 121.873 35.64C121.489 35.256 121.297 34.728 121.297 34.056V12.528C121.297 11.904 121.501 11.4 121.909 11.016C122.341 10.632 122.893 10.44 123.565 10.44C124.237 10.44 124.777 10.62 125.185 10.98C125.593 11.34 125.797 11.832 125.797 12.456V20.844C126.397 19.908 127.189 19.2 128.173 18.72C129.181 18.216 130.321 17.964 131.593 17.964ZM149.988 17.964C152.436 17.964 154.248 18.576 155.424 19.8C156.624 21 157.224 22.836 157.224 25.308V34.092C157.224 34.74 157.032 35.256 156.648 35.64C156.264 36 155.736 36.18 155.064 36.18C154.44 36.18 153.924 35.988 153.516 35.604C153.132 35.22 152.94 34.716 152.94 34.092V33.3C152.532 34.236 151.884 34.968 150.996 35.496C150.132 36.024 149.124 36.288 147.972 36.288C146.796 36.288 145.728 36.048 144.768 35.568C143.808 35.088 143.052 34.428 142.5 33.588C141.948 32.748 141.672 31.812 141.672 30.78C141.672 29.484 141.996 28.464 142.644 27.72C143.316 26.976 144.396 26.436 145.884 26.1C147.372 25.764 149.424 25.596 152.04 25.596H152.94V24.768C152.94 23.592 152.688 22.74 152.184 22.212C151.68 21.66 150.864 21.384 149.736 21.384C149.04 21.384 148.332 21.492 147.612 21.708C146.892 21.9 146.04 22.188 145.056 22.572C144.432 22.884 143.976 23.04 143.688 23.04C143.256 23.04 142.896 22.884 142.608 22.572C142.344 22.26 142.212 21.852 142.212 21.348C142.212 20.94 142.308 20.592 142.5 20.304C142.716 19.992 143.064 19.704 143.544 19.44C144.384 18.984 145.38 18.624 146.532 18.36C147.708 18.096 148.86 17.964 149.988 17.964ZM148.872 33.048C150.072 33.048 151.044 32.652 151.788 31.86C152.556 31.044 152.94 30 152.94 28.728V27.972H152.292C150.684 27.972 149.436 28.044 148.548 28.188C147.66 28.332 147.024 28.584 146.64 28.944C146.256 29.304 146.064 29.796 146.064 30.42C146.064 31.188 146.328 31.824 146.856 32.328C147.408 32.808 148.08 33.048 148.872 33.048ZM170.941 32.868C172.141 32.94 172.741 33.48 172.741 34.488C172.741 35.064 172.501 35.508 172.021 35.82C171.565 36.108 170.905 36.228 170.041 36.18L169.069 36.108C165.037 35.82 163.021 33.66 163.021 29.628V21.78H161.221C160.573 21.78 160.069 21.636 159.709 21.348C159.373 21.06 159.205 20.64 159.205 20.088C159.205 19.536 159.373 19.116 159.709 18.828C160.069 18.54 160.573 18.396 161.221 18.396H163.021V15.084C163.021 14.436 163.225 13.92 163.633 13.536C164.041 13.152 164.593 12.96 165.289 12.96C165.961 12.96 166.501 13.152 166.909 13.536C167.317 13.92 167.521 14.436 167.521 15.084V18.396H170.581C171.229 18.396 171.721 18.54 172.057 18.828C172.417 19.116 172.597 19.536 172.597 20.088C172.597 20.64 172.417 21.06 172.057 21.348C171.721 21.636 171.229 21.78 170.581 21.78H167.521V29.952C167.521 31.728 168.337 32.676 169.969 32.796L170.941 32.868ZM182.718 17.964C185.166 17.964 186.978 18.576 188.154 19.8C189.354 21 189.954 22.836 189.954 25.308V34.092C189.954 34.74 189.762 35.256 189.378 35.64C188.994 36 188.466 36.18 187.794 36.18C187.17 36.18 186.654 35.988 186.246 35.604C185.862 35.22 185.67 34.716 185.67 34.092V33.3C185.262 34.236 184.614 34.968 183.726 35.496C182.862 36.024 181.854 36.288 180.702 36.288C179.526 36.288 178.458 36.048 177.498 35.568C176.538 35.088 175.782 34.428 175.23 33.588C174.678 32.748 174.402 31.812 174.402 30.78C174.402 29.484 174.726 28.464 175.374 27.72C176.046 26.976 177.126 26.436 178.614 26.1C180.102 25.764 182.154 25.596 184.77 25.596H185.67V24.768C185.67 23.592 185.418 22.74 184.914 22.212C184.41 21.66 183.594 21.384 182.466 21.384C181.77 21.384 181.062 21.492 180.342 21.708C179.622 21.9 178.77 22.188 177.786 22.572C177.162 22.884 176.706 23.04 176.418 23.04C175.986 23.04 175.626 22.884 175.338 22.572C175.074 22.26 174.942 21.852 174.942 21.348C174.942 20.94 175.038 20.592 175.23 20.304C175.446 19.992 175.794 19.704 176.274 19.44C177.114 18.984 178.11 18.624 179.262 18.36C180.438 18.096 181.59 17.964 182.718 17.964ZM181.602 33.048C182.802 33.048 183.774 32.652 184.518 31.86C185.286 31.044 185.67 30 185.67 28.728V27.972H185.022C183.414 27.972 182.166 28.044 181.278 28.188C180.39 28.332 179.754 28.584 179.37 28.944C178.986 29.304 178.794 29.796 178.794 30.42C178.794 31.188 179.058 31.824 179.586 32.328C180.138 32.808 180.81 33.048 181.602 33.048Z" fill="#FC7C7B"/>
<defs>
<filter id="filter0_d_27_3" x="-3" y="5.00001" width="54.6664" height="54.6664" filterUnits="userSpaceOnUse" color-interpolation-filters="sRGB">
<feFlood flood-opacity="0" result="BackgroundImageFix"/>
<feColorMatrix in="SourceAlpha" type="matrix" values="0 0 0 0 0 0 0 0 0 0 0 0 0 0 0 0 0 0 127 0" result="hardAlpha"/>
<feOffset dy="4"/>
<feGaussianBlur stdDeviation="2"/>
<feComposite in2="hardAlpha" operator="out"/>
<feColorMatrix type="matrix" values="0 0 0 0 0 0 0 0 0 0 0 0 0 0 0 0 0 0 0.25 0"/>
<feBlend mode="normal" in2="BackgroundImageFix" result="effect1_dropShadow_27_3"/>
<feBlend mode="normal" in="SourceGraphic" in2="effect1_dropShadow_27_3" result="shape"/>
</filter>
<clipPath id="clip0_27_3">
<rect width="36" height="36" fill="white" transform="translate(1 18.1567) rotate(-21.4361)"/>
</clipPath>
</defs>
</svg>
